<?xml version="1.0" encoding="UTF-8"?>
<svg xmlns="http://www.w3.org/2000/svg" xmlns:xlink="http://www.w3.org/1999/xlink" width="200px" height="200px" viewBox="0 0 200 200" version="1.1">
<g id="surface1">
<path style="fill:none;stroke-width:70.07;stroke-linecap:butt;stroke-linejoin:miter;stroke:rgb(0%,18.82353%,14.117648%);stroke-opacity:1;stroke-miterlimit:10;" d="M 630.142383 313.140938 C 626.640234 289.049414 621.50918 265.788633 614.846953 243.961289 C 612.403594 235.751602 606.360352 229.69207 598.704492 227.672227 C 591.064922 225.636094 582.741211 227.96543 576.583945 233.894648 C 560.083125 249.597305 544.168711 267.352383 529.264219 286.622344 C 522.487969 295.532461 515.809453 304.670625 509.212383 314.639531 C 484.355273 303.88875 459.156094 297.601172 434.266406 295.72793 C 432.148828 290.955234 430.780547 286.198828 429.966094 281.263242 C 427.034063 263.41043 433.126172 248.489648 438.306094 239.742422 C 459.612188 247.41457 482.726367 247.316836 504.162773 239.335195 C 536.398828 227.395312 560.017969 198.840586 565.670273 164.845313 C 566.191523 161.750391 564.986133 158.622891 562.591641 156.619336 C 536.121914 134.563945 499.683281 128.292656 467.333203 140.232539 C 451.972617 146.015156 438.208359 155.690859 427.473867 168.233438 C 417.211758 152.530781 402.567891 140.232539 385.317773 132.788437 C 353.700703 119.154492 316.952578 123.682852 289.375195 144.321094 C 286.86668 146.29207 285.596133 149.354414 285.938203 152.465625 C 289.912734 186.623789 311.984414 216.367617 343.617773 229.887539 C 356.616445 235.507266 370.690195 238.048359 384.943125 237.478242 C 379.437422 254.353711 377.971406 271.978477 380.805703 289.179727 C 381.261797 292.095469 381.929648 294.994922 382.711523 298.008398 C 366.471328 300.549492 350.28 304.800937 334.381875 310.779023 C 328.143164 300.109688 321.79043 290.189648 315.209648 280.579102 C 301.543125 260.494687 286.638633 241.876289 271.05 225.277734 C 265.234805 219.006445 257.073984 216.204727 249.320391 217.817344 C 241.566797 219.413672 235.08375 225.131133 232.184297 233.17793 C 224.300391 254.581758 217.980234 277.533047 213.126094 301.380234 C 205.665703 338.209805 201.886641 377.499023 202.016953 418.189102 C 185.695312 446.646094 178.544414 476.308477 181.509023 504.113906 C 185.304375 539.884688 205.160742 571.355156 234.106406 596.700938 C 233.992383 596.961563 233.878359 597.222188 233.764336 597.499102 L 200.485781 685.183125 C 196.837031 694.809961 206.529023 704.111016 215.992969 700.055039 L 332.866992 649.99875 C 359.043516 658.094414 386.360273 662.785664 412.781133 663.518672 C 416.429883 663.632695 420.062344 663.73043 423.711094 663.616406 C 507.453164 662.443594 633.058125 616.29668 650.080195 517.308047 C 654.966914 488.75332 649.721836 457.885547 634.719609 427.913672 C 636.918633 388.15207 634.768477 345.93082 629.588555 309.492188 Z M 630.142383 313.140938 " transform="matrix(0.239808,0,0,0.239808,0,0)"/>
<path style="fill:none;stroke-width:70.07;stroke-linecap:butt;stroke-linejoin:miter;stroke:rgb(0%,18.82353%,14.117648%);stroke-opacity:1;stroke-miterlimit:10;" d="M 732.453984 552.573867 C 718.836328 542.979609 703.052227 536.349961 686.779453 533.41793 C 678.048516 531.984492 669.708516 537.636797 668.128477 546.351445 C 666.548437 555.082383 672.347344 563.422383 681.061992 565.018711 C 689.222813 566.484727 701.553633 570.06832 713.965898 578.815547 C 726.264141 587.481328 733.757109 597.776016 737.861953 604.878047 C 740.761406 609.8625 745.941328 612.713086 751.316719 612.859687 C 754.199883 612.941133 757.131914 612.256992 759.80332 610.709531 C 767.475469 606.262617 770.081719 596.424023 765.634805 588.751875 C 757.425117 574.59668 745.957617 562.08668 732.453984 552.573867 Z M 732.453984 552.573867 " transform="matrix(0.239808,0,0,0.239808,0,0)"/>
<path style="fill:none;stroke-width:70.07;stroke-linecap:butt;stroke-linejoin:miter;stroke:rgb(0%,18.82353%,14.117648%);stroke-opacity:1;stroke-miterlimit:10;" d="M 782.233359 478.051406 C 767.214844 471.275156 750.860625 467.724141 734.196914 467.789297 C 717.565781 467.870742 700.983516 471.698672 686.274492 478.833281 C 678.309141 482.710078 674.969883 492.304336 678.830391 500.285977 C 681.534375 505.856836 687.040078 509.163516 692.838984 509.326406 C 695.331211 509.407852 697.872305 508.886602 700.283086 507.730078 C 707.548008 504.211641 719.357578 499.976484 734.359805 499.895039 C 749.085117 499.764727 761.432227 503.885859 768.990352 507.306562 C 777.053437 510.955312 786.582539 507.371719 790.231289 499.308633 C 793.896328 491.212969 790.296445 481.700156 782.233359 478.051406 Z M 782.233359 478.051406 " transform="matrix(0.239808,0,0,0.239808,0,0)"/>
<path style="fill:none;stroke-width:70.07;stroke-linecap:butt;stroke-linejoin:miter;stroke:rgb(0%,18.82353%,14.117648%);stroke-opacity:1;stroke-miterlimit:10;" d="M 144.125625 518.138789 C 127.70625 520.158633 111.563789 525.876094 97.441172 534.688477 C 83.432578 543.419414 71.264648 555.277852 62.273086 568.944375 C 57.386367 576.355898 59.455078 586.324805 66.866602 591.195234 C 69.456563 592.889297 72.339727 593.736328 75.222891 593.817773 C 80.581992 593.964375 85.924805 591.423281 89.101172 586.601719 C 93.596953 579.744023 101.660039 569.90543 114.430664 561.940078 C 127.299023 553.90957 139.809023 551.010117 148.051289 550.000195 C 156.847383 548.908828 163.102383 540.910898 162.027305 532.098516 C 160.935937 523.302422 153.035742 517.177734 144.109336 518.1225 Z M 144.125625 518.138789 " transform="matrix(0.239808,0,0,0.239808,0,0)"/>
<path style="fill:none;stroke-width:70.07;stroke-linecap:butt;stroke-linejoin:miter;stroke:rgb(0%,18.82353%,14.117648%);stroke-opacity:1;stroke-miterlimit:10;" d="M 98.499961 481.993359 C 113.485898 482.921836 125.034844 487.792266 132.088008 491.734219 C 134.433633 493.021055 136.942148 493.672617 139.450664 493.737773 C 145.233281 493.900664 150.918164 490.919766 153.931641 485.511797 C 158.248242 477.741914 155.462812 467.984766 147.709219 463.668164 C 133.423711 455.702812 117.085781 450.962695 100.470938 449.952773 C 84.165586 448.97543 67.338984 451.565391 51.94582 457.47832 C 43.670977 460.670977 39.549844 469.972031 42.758789 478.246875 C 45.951445 486.521719 55.236211 490.626562 63.511055 487.433906 C 71.248359 484.436719 83.660625 481.016016 98.483672 481.97707 Z M 98.499961 481.993359 " transform="matrix(0.239808,0,0,0.239808,0,0)"/>
<path style=" stroke:none;fill-rule:nonzero;fill:rgb(64.705884%,92.941177%,26.274511%);fill-opacity:1;" d="M 51.796875 167.882812 C 49.527344 168.851562 47.199219 166.625 48.078125 164.316406 L 56.058594 143.285156 C 56.492188 142.144531 57.617188 141.414062 58.839844 141.488281 L 94.980469 143.613281 C 97.929688 143.789062 98.636719 147.816406 95.917969 148.980469 "/>
<path style=" stroke:none;fill-rule:nonzero;fill:rgb(64.705884%,92.941177%,26.274511%);fill-opacity:1;" d="M 155.894531 124.058594 C 151.808594 147.796875 121.691406 158.863281 101.605469 159.144531 C 100.730469 159.171875 99.859375 159.144531 98.988281 159.121094 C 74.050781 158.417969 45.878906 143.09375 43.527344 120.894531 C 42.816406 114.226562 44.53125 107.109375 48.445312 100.289062 C 48.414062 90.53125 49.320312 81.109375 51.109375 72.277344 C 52.273438 66.558594 53.789062 61.054688 55.679688 55.921875 C 56.375 53.988281 57.929688 52.621094 59.789062 52.238281 C 61.648438 51.851562 63.605469 52.523438 65 54.027344 C 68.738281 58.007812 72.3125 62.472656 75.589844 67.289062 C 77.167969 69.59375 78.691406 71.972656 80.1875 74.53125 C 84.003906 73.097656 87.882812 72.078125 91.777344 71.46875 C 91.589844 70.746094 91.429688 70.046875 91.320312 69.351562 C 90.640625 65.222656 90.992188 61 92.3125 56.953125 C 88.894531 57.089844 85.519531 56.480469 82.402344 55.132812 C 74.816406 51.890625 69.523438 44.757812 68.570312 36.566406 C 68.492188 35.820312 68.792969 35.082031 69.394531 34.613281 C 76.007812 29.664062 84.816406 28.578125 92.402344 31.847656 C 96.539062 33.632812 100.050781 36.578125 102.511719 40.347656 C 105.085938 37.335938 108.386719 35.019531 112.070312 33.632812 C 119.828125 30.769531 128.566406 32.273438 134.914062 37.5625 C 135.488281 38.039062 135.777344 38.792969 135.652344 39.535156 C 134.292969 47.683594 128.632812 54.535156 120.902344 57.398438 C 115.761719 59.308594 110.21875 59.332031 105.109375 57.496094 C 103.867188 59.589844 102.40625 63.167969 103.109375 67.453125 C 103.308594 68.636719 103.632812 69.777344 104.140625 70.921875 C 110.109375 71.371094 116.152344 72.875 122.113281 75.457031 C 123.695312 73.0625 125.296875 70.875 126.921875 68.738281 C 130.496094 64.113281 134.3125 59.859375 138.269531 56.09375 C 139.746094 54.671875 141.742188 54.113281 143.574219 54.601562 C 145.410156 55.089844 146.859375 56.542969 147.445312 58.507812 C 149.042969 63.742188 150.273438 69.320312 151.113281 75.09375 C 152.355469 83.835938 152.738281 93.085938 152.210938 102.625 C 155.808594 109.8125 157.0625 117.214844 155.894531 124.066406 Z M 155.894531 124.058594 "/>
<path style=" stroke:none;fill-rule:nonzero;fill:rgb(64.705884%,92.941177%,26.274511%);fill-opacity:1;" d="M 175.648438 132.511719 C 172.386719 130.210938 168.597656 128.621094 164.695312 127.917969 C 162.601562 127.574219 160.601562 128.929688 160.222656 131.019531 C 159.84375 133.113281 161.234375 135.113281 163.324219 135.496094 C 165.28125 135.847656 168.238281 136.707031 171.214844 138.804688 C 174.164062 140.882812 175.960938 143.351562 176.945312 145.054688 C 177.640625 146.25 178.882812 146.933594 180.171875 146.96875 C 180.863281 146.988281 181.566406 146.824219 182.207031 146.453125 C 184.046875 145.386719 184.671875 143.027344 183.605469 141.1875 C 181.636719 137.792969 178.886719 134.792969 175.648438 132.511719 Z M 175.648438 132.511719 "/>
<path style=" stroke:none;fill-rule:nonzero;fill:rgb(64.705884%,92.941177%,26.274511%);fill-opacity:1;" d="M 187.585938 114.640625 C 183.988281 113.015625 180.0625 112.164062 176.066406 112.179688 C 172.078125 112.199219 168.101562 113.117188 164.574219 114.828125 C 162.664062 115.757812 161.863281 118.058594 162.789062 119.972656 C 163.4375 121.308594 164.757812 122.101562 166.148438 122.140625 C 166.746094 122.160156 167.355469 122.035156 167.933594 121.757812 C 169.675781 120.914062 172.507812 119.898438 176.105469 119.878906 C 179.636719 119.847656 182.597656 120.835938 184.410156 121.65625 C 186.34375 122.53125 188.628906 121.671875 189.503906 119.738281 C 190.382812 117.796875 189.519531 115.515625 187.585938 114.640625 Z M 187.585938 114.640625 "/>
<path style=" stroke:none;fill-rule:nonzero;fill:rgb(64.705884%,92.941177%,26.274511%);fill-opacity:1;" d="M 34.5625 124.253906 C 30.628906 124.738281 26.757812 126.109375 23.371094 128.222656 C 20.007812 130.316406 17.09375 133.160156 14.933594 136.4375 C 13.765625 138.214844 14.261719 140.605469 16.035156 141.773438 C 16.65625 142.179688 17.347656 142.382812 18.039062 142.402344 C 19.328125 142.4375 20.605469 141.828125 21.367188 140.671875 C 22.449219 139.027344 24.378906 136.667969 27.441406 134.757812 C 30.53125 132.832031 33.53125 132.136719 35.503906 131.894531 C 37.613281 131.632812 39.113281 129.714844 38.855469 127.601562 C 38.59375 125.492188 36.703125 124.023438 34.5625 124.25 Z M 34.5625 124.253906 "/>
<path style=" stroke:none;fill-rule:nonzero;fill:rgb(64.705884%,92.941177%,26.274511%);fill-opacity:1;" d="M 23.621094 115.585938 C 27.214844 115.808594 29.984375 116.976562 31.675781 117.921875 C 32.238281 118.230469 32.839844 118.386719 33.441406 118.402344 C 34.828125 118.441406 36.191406 117.726562 36.914062 116.429688 C 37.949219 114.566406 37.28125 112.226562 35.421875 111.191406 C 31.996094 109.28125 28.078125 108.144531 24.09375 107.902344 C 20.183594 107.667969 16.148438 108.289062 12.457031 109.707031 C 10.472656 110.472656 9.484375 112.703125 10.253906 114.6875 C 11.019531 116.671875 13.246094 117.65625 15.230469 116.890625 C 17.085938 116.171875 20.0625 115.351562 23.617188 115.582031 Z M 23.621094 115.585938 "/>
<path style=" stroke:none;fill-rule:nonzero;fill:rgb(0%,18.82353%,14.117648%);fill-opacity:1;" d="M 97.320312 122.640625 C 95.324219 120.003906 93.332031 117.371094 91.335938 114.734375 C 89.972656 112.933594 90.960938 110.3125 93.183594 109.898438 C 95.140625 109.53125 97.429688 109.289062 99.976562 109.351562 C 102.621094 109.414062 104.976562 109.792969 106.972656 110.28125 C 109.171875 110.820312 110.019531 113.503906 108.542969 115.226562 C 106.386719 117.746094 104.230469 120.265625 102.070312 122.78125 C 100.804688 124.261719 98.496094 124.191406 97.324219 122.640625 Z M 97.320312 122.640625 "/>
<path style=" stroke:none;fill-rule:nonzero;fill:rgb(0%,18.82353%,14.117648%);fill-opacity:1;" d="M 88.550781 131.117188 C 84.136719 130.996094 80.773438 128.894531 80.265625 128.558594 C 79.082031 127.78125 78.753906 126.191406 79.53125 125.007812 C 80.308594 123.824219 81.898438 123.492188 83.082031 124.273438 C 83.128906 124.300781 87.929688 127.382812 92.671875 125.164062 C 95.625 123.773438 96.960938 121.125 97.394531 120.054688 C 97.925781 118.742188 99.425781 118.113281 100.738281 118.640625 C 102.050781 119.171875 102.683594 120.667969 102.148438 121.984375 C 101.488281 123.617188 99.449219 127.652344 94.855469 129.808594 C 92.652344 130.84375 90.5 131.171875 88.550781 131.117188 Z M 88.550781 131.117188 "/>
<path style=" stroke:none;fill-rule:nonzero;fill:rgb(0%,18.82353%,14.117648%);fill-opacity:1;" d="M 110.410156 131.734375 C 108.460938 131.679688 106.328125 131.230469 104.1875 130.070312 C 99.722656 127.660156 97.914062 123.515625 97.347656 121.847656 C 96.886719 120.507812 97.601562 119.050781 98.945312 118.589844 C 100.28125 118.136719 101.746094 118.847656 102.203125 120.1875 C 102.578125 121.285156 103.757812 124.003906 106.632812 125.554688 C 111.234375 128.039062 116.203125 125.230469 116.253906 125.203125 C 117.476562 124.492188 119.046875 124.914062 119.761719 126.136719 C 120.46875 127.363281 120.050781 128.9375 118.828125 129.644531 C 118.300781 129.949219 114.824219 131.855469 110.410156 131.730469 Z M 110.410156 131.734375 "/>
<path style=" stroke:none;fill-rule:nonzero;fill:rgb(0%,18.82353%,14.117648%);fill-opacity:1;" d="M 72.113281 121.6875 C 62.199219 121.410156 54.363281 113.121094 54.644531 103.207031 C 54.921875 93.292969 63.210938 85.457031 73.128906 85.738281 C 83.039062 86.015625 90.878906 94.304688 90.597656 104.21875 C 90.316406 114.132812 82.027344 121.96875 72.113281 121.6875 Z M 72.921875 92.90625 C 66.964844 92.738281 61.980469 97.449219 61.8125 103.40625 C 61.644531 109.363281 66.355469 114.351562 72.3125 114.519531 C 78.269531 114.6875 83.257812 109.972656 83.425781 104.015625 C 83.59375 98.058594 78.878906 93.074219 72.921875 92.90625 Z M 72.921875 92.90625 "/>
<path style=" stroke:none;fill-rule:nonzero;fill:rgb(0%,18.82353%,14.117648%);fill-opacity:1;" d="M 127.351562 123.242188 C 117.4375 122.964844 109.605469 114.675781 109.882812 104.761719 C 110.160156 94.847656 118.449219 87.011719 128.363281 87.292969 C 138.273438 87.570312 146.109375 95.859375 145.832031 105.773438 C 145.550781 115.6875 137.261719 123.523438 127.347656 123.242188 Z M 128.160156 94.460938 C 122.203125 94.292969 117.21875 99.007812 117.050781 104.964844 C 116.882812 110.921875 121.597656 115.90625 127.550781 116.074219 C 133.507812 116.242188 138.496094 111.527344 138.664062 105.570312 C 138.832031 99.613281 134.117188 94.628906 128.160156 94.460938 Z M 128.160156 94.460938 "/>
<path style=" stroke:none;fill-rule:nonzero;fill:rgb(0%,18.82353%,14.117648%);fill-opacity:1;" d="M 113.722656 107.140625 C 112.609375 107.109375 111.636719 106.554688 111.023438 105.722656 C 109.734375 105.265625 106.085938 104.503906 100.242188 104.339844 C 94.398438 104.175781 90.714844 104.726562 89.398438 105.113281 C 88.742188 105.910156 87.734375 106.40625 86.621094 106.375 C 84.703125 106.320312 83.191406 104.722656 83.246094 102.800781 C 83.296875 101.042969 83.410156 96.914062 100.4375 97.390625 C 117.464844 97.871094 117.347656 102 117.296875 103.761719 C 117.242188 105.679688 115.644531 107.191406 113.722656 107.140625 Z M 90.195312 103.007812 L 110.347656 103.574219 "/>
<path style=" stroke:none;fill-rule:nonzero;fill:rgb(0%,18.82353%,14.117648%);fill-opacity:1;" d="M 75.726562 111.816406 C 69.980469 111.65625 65.4375 106.847656 65.597656 101.097656 C 65.757812 95.351562 70.566406 90.804688 76.3125 90.96875 C 82.058594 91.128906 86.605469 95.9375 86.445312 101.6875 C 86.28125 107.433594 81.472656 111.980469 75.726562 111.816406 Z M 76.023438 101.382812 L 76.023438 101.390625 Z M 76.023438 101.382812 "/>
<path style=" stroke:none;fill-rule:nonzero;fill:rgb(0%,18.82353%,14.117648%);fill-opacity:1;" d="M 124.296875 113.183594 C 118.550781 113.019531 114.003906 108.214844 114.167969 102.464844 C 114.328125 96.71875 119.136719 92.171875 124.882812 92.335938 C 130.632812 92.496094 135.175781 97.304688 135.015625 103.050781 C 134.851562 108.800781 130.046875 113.347656 124.296875 113.183594 Z M 124.59375 102.75 L 124.59375 102.757812 Z M 124.59375 102.75 "/>
</g>
</svg>
