<?xml version="1.0" encoding="UTF-8"?>
<svg xmlns="http://www.w3.org/2000/svg" xmlns:xlink="http://www.w3.org/1999/xlink" width="32px" height="32px" viewBox="0 0 32 32" version="1.1">
<g id="surface1">
<path style=" stroke:none;fill-rule:evenodd;fill:rgb(100%,100%,100%);fill-opacity:1;" d="M 10.464844 0.988281 C 13.761719 -0.226562 17.363281 -0.324219 20.714844 0.710938 C 22.804688 1.355469 24.722656 2.414062 26.367188 3.8125 L 26.90625 4.292969 L 28.585938 2.609375 C 29.792969 1.40625 31.8125 2.171875 31.988281 3.796875 L 32 4.027344 L 32 12 L 24.027344 12 C 22.320312 12 21.429688 10.027344 22.457031 8.753906 L 22.609375 8.585938 L 24.074219 7.121094 C 22.777344 5.945312 21.230469 5.054688 19.535156 4.53125 C 17.019531 3.757812 14.320312 3.828125 11.851562 4.742188 C 9.378906 5.652344 7.277344 7.347656 5.867188 9.570312 C 4.457031 11.792969 3.816406 14.417969 4.046875 17.042969 C 4.273438 19.664062 5.359375 22.140625 7.132812 24.085938 C 8.90625 26.03125 11.269531 27.339844 13.859375 27.808594 C 16.453125 28.277344 19.125 27.882812 21.46875 26.683594 C 23.8125 25.480469 25.695312 23.546875 26.828125 21.167969 C 27.304688 20.171875 28.5 19.75 29.496094 20.226562 C 30.492188 20.703125 30.914062 21.894531 30.4375 22.894531 C 28.925781 26.058594 26.414062 28.644531 23.289062 30.242188 C 20.164062 31.84375 16.601562 32.371094 13.148438 31.742188 C 9.695312 31.117188 6.542969 29.375 4.175781 26.78125 C 1.8125 24.1875 0.367188 20.886719 0.0585938 17.390625 C -0.246094 13.894531 0.609375 10.394531 2.488281 7.429688 C 4.371094 4.464844 7.171875 2.203125 10.464844 0.988281 Z M 12 10.921875 C 12 10.191406 12.75 9.726562 13.390625 10 L 13.535156 10.078125 L 21.542969 15.15625 C 22.105469 15.511719 22.15625 16.292969 21.695312 16.726562 L 21.542969 16.84375 L 13.535156 21.921875 C 12.917969 22.316406 12.125 21.929688 12.011719 21.242188 L 12 21.078125 Z M 12 10.921875 "/>
</g>
</svg>
