<!-- Created with PixiEditor (https://pixieditor.net) -->
<svg version="1.1" viewBox="0 0 16 16" xmlns="http://www.w3.org/2000/svg">
  <g opacity="1" id="Plugin Icon">
    <g opacity="1" id="Cat Bubble">
      <path d="M8.57219 15.7529C8.57219 15.7529 7.98148 12.1395 7.98148 12.1395C7.98148 12.1395 13.3539 12.1311 13.2299 12.1395C13.2299 12.1395 10.4537 14.853 9.66221 15.5104C9.34911 15.7705 9.18616 15.9941 8.8802 15.9999C8.57424 16.0057 8.57219 15.7529 8.57219 15.7529Z" fill-rule="nonzero" transform="matrix(1, 0, 0, 1, 0, 0)" fill="#e0e0e0" fill-opacity="1" stroke="#ffffff" stroke-width="0" stroke-linecap="butt" stroke-linejoin="miter" opacity="1" id="Tail" />
      <path d="M13.3346 12.9941C11.4412 13.0502 4.82125 12.9941 2.65088 12.9941C0.480511 12.9941 0.492483 10.1649 0.492483 9.00187C0.492483 6.50687 0.492483 6.3415 0.492483 4.71048C0.492483 3.07946 2.65088 3.32897 2.65088 3.32897C2.65088 3.32897 11.1653 3.32897 13.3346 3.32897C15.5039 3.32897 15.5039 4.71048 15.5039 4.71048C15.5039 4.71048 15.5039 7.67244 15.5039 10.4318C15.5039 11.5948 15.228 12.938 13.3346 12.9941ZM4.5764 6.91784C4.5764 6.91784 4.54499 6.10158 5.34449 6.10158C6.144 6.10158 6.144 6.91784 6.144 6.91784L6.144 9.76224C6.144 9.76224 6.05066 10.4318 5.34449 10.4318C4.63832 10.4318 4.5764 9.76224 4.5764 9.76224C4.5764 9.76224 4.5764 6.91784 4.5764 6.91784ZM11.5931 6.91784C11.5931 6.91784 11.5519 6.10158 10.7948 6.10158C10.0376 6.10158 10.0376 6.91784 10.0376 6.91784L10.0376 9.76224C10.0376 9.76224 9.99649 10.4318 10.7948 10.4318C11.5931 10.4318 11.5931 9.76224 11.5931 9.76224L11.5931 6.91784Z" fill-rule="evenodd" transform="matrix(1, 0, 0, 1, 0, 0)" fill="#e0e0e0" fill-opacity="1" stroke="#ffffff" stroke-width="0" stroke-linecap="butt" stroke-linejoin="miter" opacity="1" id="Base" />
      <path d="M0.492451 6.10158C0.492451 6.10158 0.492451 6.60154 0.492451 4.05157C0.492451 1.5016 1.92423 0.249045 2.65815 0.564586C4.38843 1.30837 6.53658 4.05157 6.53658 4.05157L0.492451 6.10158L0.492451 6.10158" fill-rule="evenodd" transform="matrix(1, 0, 0, 1, 0, 0)" fill="#e0e0e0" fill-opacity="1" stroke="#ffffff" stroke-width="0" stroke-linecap="butt" stroke-linejoin="miter" opacity="1" id="RightEar" />
      <path d="M15.5039 6.10158C15.5039 6.10158 15.5039 6.60154 15.5039 4.05157C15.5039 1.5016 14.0722 0.249045 13.3382 0.564586C11.608 1.30837 9.4598 4.05157 9.4598 4.05157L15.5039 6.10158L15.5039 6.10158" fill-rule="evenodd" transform="matrix(1, 0, 0, 1, 0, 0)" fill="#e0e0e0" fill-opacity="1" stroke="#ffffff" stroke-width="0" stroke-linecap="butt" stroke-linejoin="miter" opacity="1" id="RightEar" />
    </g>
  </g>
</svg>