<?xml version="1.0" encoding="UTF-8" standalone="no"?>
<svg
   height="16"
   viewBox="0 0 16 16"
   width="16"
   version="1.1"
   id="svg4"
   sodipodi:docname="icon.svg"
   inkscape:version="1.3.2 (091e20e, 2023-11-25, custom)"
   xmlns:inkscape="http://www.inkscape.org/namespaces/inkscape"
   xmlns:sodipodi="http://sodipodi.sourceforge.net/DTD/sodipodi-0.dtd"
   xmlns="http://www.w3.org/2000/svg"
   xmlns:svg="http://www.w3.org/2000/svg">
  <defs
     id="defs8" />
  <sodipodi:namedview
     id="namedview6"
     pagecolor="#505050"
     bordercolor="#eeeeee"
     borderopacity="1"
     inkscape:pageshadow="0"
     inkscape:pageopacity="0"
     inkscape:pagecheckerboard="0"
     showgrid="false"
     inkscape:snap-intersection-paths="true"
     inkscape:object-paths="true"
     inkscape:snap-smooth-nodes="true"
     inkscape:snap-midpoints="true"
     inkscape:zoom="32"
     inkscape:cx="7.640625"
     inkscape:cy="9.140625"
     inkscape:window-width="1920"
     inkscape:window-height="1017"
     inkscape:window-x="-8"
     inkscape:window-y="-8"
     inkscape:window-maximized="1"
     inkscape:current-layer="svg4"
     inkscape:showpageshadow="0"
     inkscape:deskcolor="#505050" />
  <path
     id="rect930"
     style="fill:#e0e0e0;fill-opacity:1"
     d="M 3,1 C 1.892,1 0.99509739,1.8920108 1,3 l 0.03125,7.0625 c 0.0049,1.107989 0.7358365,1.704901 1.84375,1.71875 l 5,0.0625 L 8,15 12.078125,11.824219 c 0.06312,-0.04952 1.195346,-0.03003 1.275391,-0.0332 1.2365,-0.049 1.681058,-1.080906 1.677734,-1.822266 L 15,3 C 14.995,1.8920111 14.108,1 13,1 Z M 3.4375,2.40625 6.40625,2.4375 c 0.5539691,0.00583 1,0.696 1,1.25 0,0.554 -0.4461201,1.2072108 -1,1.21875 l -3,0.0625 c -0.5538799,0.011539 -0.96875,-0.696 -0.96875,-1.25 0,-0.554 0.4460307,-1.3183313 1,-1.3125 z m 0,3.9375 h 9.125 c 0.917442,0 1.209292,0.72908 1.1875,1.78125 -0.02121,1.0240671 -0.10225,1.96875 -1.1875,1.96875 H 3.40625 C 2.5085,10.09375 2.2158122,9.0222114 2.25,7.9375 2.28125,6.946 2.539645,6.34375 3.4375,6.34375 Z"
     sodipodi:nodetypes="sssscccsssssssssssssssssss" />
</svg>
