<?xml version="1.0" encoding="UTF-8"?>
<svg xmlns="http://www.w3.org/2000/svg" xmlns:xlink="http://www.w3.org/1999/xlink" width="16px" height="16px" viewBox="0 0 16 16" version="1.1">
<g id="surface1">
<path style=" stroke:none;fill-rule:nonzero;fill:rgb(100%,100%,100%);fill-opacity:1;" d="M 4.480469 6.078125 L 2.171875 8 L 4.480469 9.921875 C 4.796875 10.1875 4.839844 10.660156 4.574219 10.980469 C 4.3125 11.296875 3.839844 11.339844 3.519531 11.078125 L 0.519531 8.578125 C 0.347656 8.433594 0.25 8.222656 0.25 8 C 0.25 7.777344 0.347656 7.566406 0.519531 7.421875 L 3.519531 4.921875 C 3.839844 4.660156 4.3125 4.703125 4.578125 5.019531 C 4.839844 5.339844 4.796875 5.8125 4.480469 6.078125 Z M 15.480469 7.421875 L 12.480469 4.921875 C 12.160156 4.660156 11.6875 4.703125 11.421875 5.019531 C 11.160156 5.339844 11.203125 5.8125 11.519531 6.078125 L 13.828125 8 L 11.519531 9.921875 C 11.203125 10.1875 11.160156 10.660156 11.425781 10.980469 C 11.6875 11.296875 12.160156 11.339844 12.480469 11.074219 L 15.480469 8.578125 C 15.652344 8.433594 15.75 8.222656 15.75 8 C 15.75 7.777344 15.652344 7.566406 15.480469 7.421875 Z M 10.257812 1.796875 C 9.867188 1.652344 9.4375 1.855469 9.296875 2.242188 L 5.296875 13.242188 C 5.152344 13.632812 5.355469 14.0625 5.742188 14.207031 C 6.132812 14.347656 6.5625 14.144531 6.703125 13.757812 L 10.703125 2.757812 C 10.847656 2.367188 10.644531 1.9375 10.257812 1.796875 Z M 10.257812 1.796875 "/>
</g>
</svg>
